External Loads File
version=1
nRows=31
nColumns=13
Range=5.000000e-03-10 seconds
endheader
time 	forceRightX 	forceRightY 	forceRightZ 	pointRightX 	pointRightY 	pointRightZ 	forceLeftX 	forceLeftY 	forceLeftZ 	pointLeftX 	pointLeftY 	pointLeftZ 		
2.505000 -37.081889 -116.451498 -0.000000 0.187215 0.424467 -0.194918 -103.793148 725.200275 -0.000000 0.451442 0.236620 -0.444170
2.510000 -40.005661 -114.466197 -0.000000 0.190079 0.429358 -0.194954 -96.464784 718.335870 -0.000000 0.449405 0.231774 -0.444204
2.515000 -43.075986 -112.386037 -0.000000 0.193090 0.434251 -0.194994 -89.366328 710.599830 -0.000000 0.447317 0.226874 -0.444225
2.520000 -46.203889 -110.159280 -0.000000 0.196261 0.438999 -0.194994 -82.887425 701.993744 -0.000000 0.445106 0.222115 -0.444272
2.525000 -49.285215 -107.775356 -0.000000 0.198870 0.443674 -0.195974 -77.396383 692.519073 -0.000000 0.442648 0.217440 -0.444256
2.530000 -52.611697 -105.065003 -0.000000 0.202290 0.448402 -0.196056 -70.747198 682.396677 -0.000000 0.440186 0.212719 -0.444300
2.535000 -55.930117 -102.085269 -0.000000 0.205839 0.452988 -0.196095 -64.259935 671.381788 -0.000000 0.437538 0.208281 -0.444328
2.540000 -59.293707 -98.704707 -0.000000 0.210042 0.457272 -0.195027 -57.055797 659.390644 -0.000000 0.434738 0.203976 -0.444290
2.545000 -62.472754 -94.930563 -0.000000 0.213708 0.461760 -0.195527 -49.948909 646.131648 -0.000000 0.431871 0.199648 -0.444257
2.550000 -65.418810 -90.665400 -0.000000 0.217768 0.465880 -0.195646 -42.486852 631.419299 -0.000000 0.428827 0.195578 -0.444246
2.555000 -68.077278 -85.805289 -0.000000 0.222112 0.470001 -0.195453 -34.187308 615.057158 -0.000000 0.425665 0.191550 -0.444199
2.560000 -70.203035 -80.463980 -0.000000 0.226140 0.473985 -0.195555 -26.159819 596.761762 -0.000000 0.422373 0.187618 -0.444178
2.565000 -71.847922 -74.660201 -0.000000 0.230305 0.477745 -0.195683 -18.047099 576.366739 -0.000000 0.418938 0.183988 -0.444100
2.570000 -73.092666 -68.467883 -0.000000 0.234312 0.481508 -0.195879 -9.875814 553.744142 -0.000000 0.415412 0.180367 -0.443990
2.575000 -74.081994 -61.903435 -0.000000 0.238635 0.485046 -0.195932 -1.412952 528.872796 -0.000000 0.411759 0.176939 -0.443902
2.580000 -74.872716 -55.074674 -0.000000 0.242967 0.488376 -0.195989 6.770447 501.827374 -0.000000 0.407996 0.173814 -0.443801
2.585000 -75.663082 -47.921147 -0.000000 0.247496 0.491628 -0.195924 15.165377 472.777441 -0.000000 0.404068 0.170702 -0.443719
2.590000 -76.533767 -40.514933 -0.000000 0.252117 0.494591 -0.195853 23.135741 442.028253 -0.000000 0.400083 0.167739 -0.443723
2.595000 -77.594837 -32.828828 -0.000000 0.256693 0.497259 -0.195873 30.461124 410.031781 -0.000000 0.395877 0.165184 -0.443584
2.600000 -78.960728 -24.703938 -0.000000 0.261413 0.499944 -0.196058 37.383416 377.300153 -0.000000 0.391624 0.162594 -0.443513
2.605000 -80.663400 -16.060560 -0.000000 0.266175 0.502226 -0.195994 43.547400 344.441430 -0.000000 0.387200 0.160209 -0.443406
2.610000 -82.731470 -6.667003 -0.000000 0.270992 0.504526 -0.195988 49.219125 312.059147 -0.000000 0.382391 0.158161 -0.442815
2.615000 -85.117668 3.468869 -0.000000 0.275805 0.506467 -0.196237 53.804491 280.919157 -0.000000 0.377806 0.156120 -0.442704
2.620000 -87.753304 14.491899 -0.000000 0.280641 0.508359 -0.196383 57.710962 251.585378 -0.000000 0.373046 0.154459 -0.442571
2.625000 -90.508103 26.374125 -0.000000 0.285678 0.509932 -0.196790 61.119368 224.496935 -0.000000 0.368111 0.153025 -0.442508
2.630000 -93.313660 38.851415 -0.000000 0.290419 0.511323 -0.196383 63.824294 200.054636 -0.000000 0.363114 0.151640 -0.442319
2.635000 -96.087480 51.894867 -0.000000 0.295111 0.512565 -0.196357 66.175668 178.384362 -0.000000 0.357913 0.150553 -0.442112
2.640000 -98.784613 65.467320 -0.000000 0.299913 0.513543 -0.196213 68.314677 159.516525 -0.000000 0.352652 0.149629 -0.442048
2.645000 -101.382784 79.557748 -0.000000 0.304608 0.514233 -0.196162 70.337805 143.352491 -0.000000 0.347205 0.148945 -0.441877
2.650000 -103.827471 94.212909 -0.000000 0.309321 0.514523 -0.196091 72.343328 129.674594 -0.000000 0.341715 0.148438 -0.441663
2.655000 -106.009685 109.531246 -0.000000 0.314059 0.514604 -0.195955 74.411465 118.176108 -0.000000 0.336122 0.148262 -0.441563
